<?xml version="1.0" encoding="utf-8"?>
<!-- Generator: Adobe Illustrator 22.0.1, SVG Export Plug-In . SVG Version: 6.00 Build 0)  -->
<svg version="1.1" id="Capa_1" xmlns="http://www.w3.org/2000/svg" xmlns:xlink="http://www.w3.org/1999/xlink" x="0px" y="0px"
	 viewBox="0 0 50 50" style="enable-background:new 0 0 50 50;" xml:space="preserve">
<style type="text/css">
	.st0{fill:#FF8100;}
</style>
<g>
	<path class="st0" d="M33.9,50c-0.4-0.3-0.6-0.7-0.6-1.2c0-2.4,0-4.9,0-7.3c0-0.2-0.1-0.5-0.2-0.7c-2.2-3.4-2.7-7-1.4-10.9
		c0,0,0-0.1,0-0.2c-0.2,0.1-0.3,0.1-0.5,0.2C25,32.2,18.8,34.6,12.5,37c-2.5,1-4.8,0-5.8-2.6c-1-2.5-1.9-4.9-2.8-7.4
		c-0.1-0.3-0.3-0.4-0.6-0.5c-1.8-0.4-3.3-2-3.3-3.9C0,16.4,0,10.2,0,4c0-2.2,1.9-4,4.1-4c2.9,0,5.8,0,8.7,0C21,0,29.2,0,37.3,0
		c2.1,0,3.7,1.2,4.2,3.2c0.1,0.4,0.1,0.8,0.1,1.3c0,1.3,0,2.6,0,3.9c0,0.3,0.1,0.6,0.3,0.8c1.5,1.5,3,3,4.5,4.5
		c1.9,1.9,3.1,4.1,3.4,6.8c0,0.1,0.1,0.2,0.1,0.3c0,9.8,0,19.5,0,29.3C44.6,50,39.3,50,33.9,50z M29.1,25C28,23.8,27,22.7,26,21.5
		c-1.1-1.3-1.5-2.7-1-4.4c1-3.3,5-4.2,7.5-1.7c2.4,2.3,4.7,4.7,7.1,7.1c0.1,0.1,0.2,0.2,0.4,0.4c0-0.3,0-0.6,0-0.8
		c0-5.9,0-11.7,0-17.6c0-1.8-1-2.8-2.8-2.8c-10.9,0-21.8,0-32.7,0c-1.8,0-2.8,1-2.8,2.8c0,5.9,0,11.8,0,17.7c0,1.9,1,2.8,2.9,2.8
		c8,0,16,0,24,0C28.7,25,28.8,25,29.1,25z M43,12.6c0.1,0.2,0.1,0.4,0.2,0.5c0.8,2.2,1.7,4.4,2.5,6.6c0.8,2.3-0.2,4.5-2.4,5.4
		c-0.2,0.1-0.5,0.2-0.8,0.3c1.1,1,2.1,2,3.1,3c-0.4,0.4-0.8,0.8-1.2,1.2c-0.1-0.1-0.3-0.3-0.4-0.4c-4.2-4.2-8.4-8.4-12.6-12.6
		c-0.2-0.2-0.3-0.3-0.5-0.5c-0.8-0.6-1.6-0.8-2.5-0.5c-2,0.6-2.6,3-1.2,4.6c2.2,2.4,4.4,4.8,6.6,7.2c0.5,0.5,0.5,0.8,0.2,1.4
		c-1.8,3.6-1.7,7.2,0.4,10.6c0.2,0.3,0.4,0.4,0.8,0.4c4.2,0,8.4,0,12.6,0c0.2,0,0.3,0,0.5,0c0-0.2,0-0.3,0-0.4c0-6,0-12,0-18
		c0-0.8-0.2-1.6-0.3-2.4C47.3,16.3,45,14.6,43,12.6z M31.8,27.8c-0.2-0.2-0.4-0.4-0.6-0.6c-0.3-0.5-0.7-0.6-1.3-0.6
		c-4.1,0-8.3,0-12.4,0c-0.3,0-0.6,0.1-0.9,0.2c-2.2,0.8-4.3,1.7-6.5,2.5c-1,0.4-2,0.8-3,1.2c0.4,1.2,0.9,2.3,1.3,3.4
		c0.6,1.6,1.9,2.2,3.6,1.6c4.1-1.6,8.2-3.2,12.3-4.7C26.7,29.8,29.2,28.8,31.8,27.8z M48.3,41.7c-4.4,0-8.9,0-13.3,0
		c0,2.2,0,4.4,0,6.6c4.5,0,8.9,0,13.3,0C48.3,46.1,48.3,43.9,48.3,41.7z M41.5,24.1c0.3-0.1,0.7-0.3,1.1-0.4
		c1.6-0.6,2.2-1.9,1.6-3.5c-0.7-1.9-1.4-3.7-2.2-5.6c-0.1-0.1-0.1-0.3-0.2-0.4c0,0-0.1,0-0.1,0c0,0.2,0,0.3,0,0.5c0,2.4,0,4.7,0,7.1
		C41.7,22.5,41.6,23.3,41.5,24.1z M12.1,26.8C12.1,26.7,12.1,26.7,12.1,26.8c-2.2-0.1-4.3-0.1-6.5-0.1c0.3,0.8,0.6,1.5,0.9,2.2
		C8.3,28.2,10.2,27.5,12.1,26.8z"/>
	<path class="st0" d="M7.5,11.7c-0.6,0-1.3,0-1.9,0c-1.4,0-2.2-0.9-2.2-2.3c0-1.3,0-2.5,0-3.8c0-1.4,0.9-2.3,2.3-2.3
		c1.3,0,2.5,0,3.8,0c1.3,0,2.2,0.9,2.3,2.2c0,1.3,0,2.6,0,3.9c0,1.4-0.9,2.2-2.2,2.2C8.8,11.7,8.1,11.7,7.5,11.7z M5,8.3
		c0,0.4,0,0.8,0,1.1C5,9.8,5.2,10,5.5,10c1.3,0,2.6,0,3.9,0C9.8,10,10,9.9,10,9.5c0-0.4,0-0.8,0-1.2c-0.6,0-1.1,0-1.6,0
		c0-0.6,0-1.1,0-1.7c0.6,0,1.1,0,1.6,0c0-0.4,0-0.7,0-1.1C10,5.2,9.8,5,9.4,5C8.1,5,6.8,5,5.5,5C5.2,5,5,5.2,5,5.5
		c0,0.4,0,0.7,0,1.2c0.6,0,1.1,0,1.6,0c0,0.6,0,1.1,0,1.7C6.1,8.3,5.6,8.3,5,8.3z"/>
	<path class="st0" d="M4.2,14.2c1.1,0,2.2,0,3.3,0c0,0.5,0,1.1,0,1.6c-1.1,0-2.2,0-3.3,0C4.2,15.3,4.2,14.8,4.2,14.2z"/>
	<path class="st0" d="M9.2,15.8c0-0.5,0-1,0-1.6c1.1,0,2.2,0,3.3,0c0,0.5,0,1,0,1.6C11.4,15.8,10.3,15.8,9.2,15.8z"/>
	<path class="st0" d="M14.2,15.8c0-0.6,0-1.1,0-1.6c1.1,0,2.2,0,3.3,0c0,0.5,0,1,0,1.6C16.4,15.8,15.3,15.8,14.2,15.8z"/>
	<path class="st0" d="M22.5,14.2c0,0.5,0,1.1,0,1.6c-1.1,0-2.2,0-3.3,0c0-0.5,0-1,0-1.6C20.3,14.2,21.4,14.2,22.5,14.2z"/>
	<path class="st0" d="M4.2,19.2c1.1,0,2.2,0,3.3,0c0,0.5,0,1.1,0,1.6c-1.1,0-2.1,0-3.3,0C4.2,20.3,4.2,19.8,4.2,19.2z"/>
	<path class="st0" d="M22.5,20.8c-1.1,0-2.2,0-3.3,0c0-0.5,0-1,0-1.6c1.1,0,2.1,0,3.3,0C22.5,19.7,22.5,20.2,22.5,20.8z"/>
	<path class="st0" d="M26.6,6.7c-0.5,0-1,0-1.6,0c0-0.8,0-1.6,0-2.4c0.5,0,1,0,1.6,0C26.6,5,26.6,5.8,26.6,6.7z"/>
	<path class="st0" d="M30,4.2c0,0.8,0,1.6,0,2.4c-0.5,0-1.1,0-1.6,0c0-0.8,0-1.6,0-2.4C28.9,4.2,29.4,4.2,30,4.2z"/>
	<path class="st0" d="M31.7,6.6c0-0.8,0-1.6,0-2.4c0.5,0,1.1,0,1.6,0c0,0.8,0,1.6,0,2.4C32.8,6.6,32.2,6.6,31.7,6.6z"/>
	<path class="st0" d="M36.6,4.2c0,0.8,0,1.6,0,2.4c-0.5,0-1.1,0-1.6,0c0-0.8,0-1.6,0-2.4C35.6,4.2,36.1,4.2,36.6,4.2z"/>
	<path class="st0" d="M38.3,45c-0.5,0-1,0-1.6,0c0-0.5,0-1.1,0-1.6c0.5,0,1,0,1.6,0C38.3,43.9,38.3,44.4,38.3,45z"/>
</g>
</svg>
