<?xml version="1.0" encoding="utf-8"?>
<!-- Generator: Adobe Illustrator 22.0.1, SVG Export Plug-In . SVG Version: 6.00 Build 0)  -->
<svg version="1.1" id="Capa_1" xmlns="http://www.w3.org/2000/svg" xmlns:xlink="http://www.w3.org/1999/xlink" x="0px" y="0px"
	 viewBox="0 0 50 50" style="enable-background:new 0 0 50 50;" xml:space="preserve">
<style type="text/css">
	.st0{fill:#FF8100;}
</style>
<g>
	<path class="st0" d="M36.8,0c0.4,0.3,0.5,0.7,0.5,1.1c0,2.7,0,5.5,0,8.3c0,0.1,0,0.3,0.1,0.3c1,1.1,2,2.2,2.9,3.3
		c1.1,1.3,2.1,2.6,3.2,3.8c0.8,0.9,1.1,1.9,1.1,3.1c0,5.6,0,16.4,0,22c0,0.8-0.2,1.1-0.7,1.2c-0.5,0-0.7-0.4-0.7-1.1
		c0-5.6,0-16.4,0-22c0-0.8-0.2-1.5-0.7-2.1c-1.7-2.1-3.5-4.2-5.2-6.3c-0.1-0.1-0.2-0.2-0.2-0.3c-0.3,0.5-0.5,1-0.8,1.4
		c-0.8,1.2-1.8,2.1-3.1,2.7c-0.2,0.1-0.3,0.3-0.4,0.4c-0.4,1.1-1.3,1.8-2.3,1.7c-1,0-1.9-0.8-2.1-1.8c-0.2-1,0.3-2.1,1.2-2.6
		c1-0.5,2.1-0.2,2.8,0.6c0.1,0.1,0.1,0.1,0.1,0.2c1.3-0.3,2.9-2.1,3.1-3.5c-0.2,0-0.4,0-0.6,0c-3,0-6,0-9,0c-0.9,0-1.6,0.3-2.1,1
		c-1.8,2.2-3.6,4.4-5.4,6.5c-0.4,0.5-0.5,1-0.5,1.6c0,0.8,0,1.7,0,2.5c0,7.5,0,14.9,0,22.4c0,1.2,0.3,2.2,1.2,3
		c0.6,0.6,1.4,0.9,2.3,0.9c6.1,0,12.1,0,18.2,0c1.8,0,3.4-1.5,3.6-3.3c0.1-1.4,0-2.8,0.1-4.2c0-0.2,0-0.4,0-0.5
		c0-0.4,0.3-0.6,0.7-0.6c0.4,0,0.6,0.2,0.7,0.6c0,0.1,0,0.2,0,0.2c0,1.5,0.1,2.9,0,4.4C44.4,48,42.2,50,39.3,50
		c-5.7,0-11.4,0-17.1,0c-0.5,0-1,0-1.5-0.1c-1.4-0.2-2.4-0.9-3.3-2c-0.2-0.2-0.4-0.4-0.6-0.5c-2.7-1.2-5.5-2.4-8.2-3.7
		c-2.7-1.2-3.8-3.8-2.7-6.6c1.5-3.8,3.1-7.7,4.6-11.5c0-0.1,0-0.1,0.1-0.2c0.2-0.5,0.6-0.6,1-0.5c0.4,0.2,0.6,0.6,0.4,1
		c-0.4,0.9-0.7,1.9-1.1,2.8c-1.2,3-2.4,6-3.6,9c-0.8,1.9,0,3.7,1.8,4.5c2.4,1.1,4.7,2.1,7.1,3.1c0.1,0,0.2,0.1,0.3,0.1
		c0-0.4,0-0.8,0-1.2c0-8.2,0-16.3,0-24.5c0-1.3,0.4-2.4,1.2-3.4c1.1-1.3,2.2-2.6,3.2-4c-0.8,0.4-1.5,0.8-2.3,1.1
		c-1.5,0.5-2.4,1.5-2.9,3.1c-0.7,2-3.2,8.2-4,10.2c0,0.1-0.1,0.2-0.1,0.3c-0.2,0.4-0.6,0.6-0.9,0.4c-0.4-0.1-0.6-0.5-0.4-0.9
		c0.1-0.4,2-5.2,2.2-5.6c0.8-2,1.6-3.9,2.3-5.9c0.4-1.1,1.1-1.8,2.1-2.3c2.4-1.2,4.8-2.4,7.3-3.5C24.6,9.1,25.2,9,25.8,9
		c3.3,0,6.5,0,9.8,0c0,0,0.1,0,0.2,0c0-0.2,0-0.4,0-0.6c0-2.4,0-4.8,0-7.3c0-0.4,0.1-0.8,0.4-1.1C36.4,0,36.6,0,36.8,0z M30.5,16
		c0.5,0,0.8-0.4,0.8-0.8c0-0.5-0.4-0.8-0.9-0.8c-0.4,0-0.8,0.4-0.8,0.8C29.6,15.6,30,16,30.5,16z"/>
	<path class="st0" d="M37.5,25.7c-0.2,0.3-0.4,0.6-0.6,0.8c-3.7,3.7-7.4,7.4-11.1,11.1c-0.3,0.3-0.7,0.7-1,1
		c-0.4,0.4-0.8,0.4-1.1,0.1c-0.3-0.3-0.3-0.8,0.1-1.1c4.1-4.1,8.2-8.2,12.3-12.3c0.3-0.3,0.6-0.5,0.9-0.3
		C37.1,25.2,37.2,25.5,37.5,25.7z"/>
	<path class="st0" d="M22.4,28.1c0-1.8,1.4-3.2,3.2-3.2c1.8,0,3.3,1.4,3.2,3.2c0,1.8-1.4,3.2-3.2,3.2C23.8,31.2,22.4,29.8,22.4,28.1
		z M25.7,26.4c-1,0-1.8,0.7-1.8,1.7c0,1,0.7,1.7,1.7,1.7c1,0,1.8-0.7,1.8-1.7C27.4,27.2,26.6,26.4,25.7,26.4z"/>
	<path class="st0" d="M35.2,32.6c1.8,0,3.2,1.4,3.2,3.1c0,1.8-1.4,3.2-3.2,3.2c-1.8,0-3.2-1.4-3.2-3.2C32,34,33.4,32.6,35.2,32.6z
		 M35.2,37.5c1,0,1.8-0.8,1.8-1.7c0-1-0.8-1.7-1.8-1.7c-1,0-1.7,0.7-1.7,1.7C33.4,36.8,34.2,37.5,35.2,37.5z"/>
</g>
</svg>
