<?xml version="1.0" encoding="utf-8"?>
<!-- Generator: Adobe Illustrator 22.0.1, SVG Export Plug-In . SVG Version: 6.00 Build 0)  -->
<svg version="1.1" id="Capa_1" xmlns="http://www.w3.org/2000/svg" xmlns:xlink="http://www.w3.org/1999/xlink" x="0px" y="0px"
	 viewBox="0 0 50 50" style="enable-background:new 0 0 50 50;" xml:space="preserve">
<style type="text/css">
	.st0{fill:#FF8100;}
</style>
<g>
	<path class="st0" d="M50,35.3c-0.2,0.5-0.3,1-0.5,1.4c-0.4,0.9-4.6,3.4-5.4,3.9c-0.5,0.3-0.9,0.2-1.1-0.2c-0.2-0.4-0.1-0.7,0.4-1
		c1.6-1,6-3.3,5.2-5c-0.4-1-1.1-3.3-1.4-4.3c-0.7-2.4-1.5-4.6-2.6-6.8c-0.9-1.7-1.7-3.3-2.6-5c-0.7-1.3-2.5-1.3-3.2-0.1
		c-0.3,0.5-0.3,0.9-0.1,1.4c0.4,0.7,0.8,1.5,1.2,2.2c0.3,0.5,0.2,0.9-0.3,1.1c-0.4,0.2-0.8,0.1-1-0.4c-0.4-0.7-0.7-1.4-1.1-2.1
		c-0.4-0.7-0.9-1-1.7-0.8c-0.7,0.1-1.3,0.6-1.5,1.3c-0.1,0.3,0,0.6,0.1,0.9c0.3,0.8,0.8,1.5,1.1,2.2c0.3,0.6,0.2,0.9-0.2,1.2
		c-0.5,0.2-0.8,0.1-1.1-0.5c-0.3-0.6-0.7-1.3-1-1.9c-0.4-0.8-0.8-1-1.6-0.9c-0.8,0.1-1.3,0.5-1.6,1.2c-0.2,0.4-0.1,0.9,0.1,1.3
		c0.3,0.6,0.7,1.2,1,1.9c0.3,0.6,0.3,1-0.2,1.3c-0.5,0.2-0.8,0.1-1.1-0.6c-2-3.8-4-7.6-6-11.4c0-0.1-0.1-0.1-0.1-0.2
		c-0.5-1-1.4-1.3-2.3-0.9c-0.9,0.4-1.4,1.5-1,2.4c0.1,0.2,0.2,0.4,0.3,0.6c2.2,4.2,4.4,8.5,6.7,12.7c0,0.1,0.1,0.1,0.1,0.2
		c0.2,0.4,0.3,0.7-0.1,1c-0.3,0.3-0.6,0.2-1,0.1c-1-0.5-1.9-1-2.9-1.5c-0.3-0.2-0.6-0.3-0.9-0.4c-1-0.5-1.9-0.2-2.4,0.8
		c-0.5,1-0.2,2,0.8,2.5c2.6,1.3,5.3,2.6,7.9,3.9c1,0.5,2,1,3,1.5c1,0.5,1.8,1.2,2.4,2.2c1,1.8,2.8,2.3,4.6,1.4
		c1.3-0.7,2.6-1.4,3.9-2c0.1-0.1,0.3-0.1,0.4-0.2c0.4-0.2,0.7,0,0.9,0.3c0.2,0.4,0.1,0.8-0.2,1c-1.6,0.9-3.2,1.8-4.9,2.5
		c-2.1,0.9-4.7,0-5.8-2.1c-0.5-0.9-1.1-1.5-2-1.9c-0.7-0.3-1.4-0.7-2.2-1.1c0,0.3,0,0.5,0,0.6c0,2.5-0.1,5.1,0,7.6
		c0,1.8-0.6,3.1-2.3,3.6c-8.1,0-16.1,0-24.2,0C0.4,49.2,0,48.5,0,46.4C0,32.1,0,17.7,0,3.4C0,3.2,0,3,0,2.8c0-1,0.5-1.7,1.2-2.3
		C1.6,0.3,2,0.2,2.3,0c0.9,0,6.5,0,7.4,0c0.4,0.2,0.6,0.5,0.4,1C10,1.4,9.7,1.5,9.3,1.5c-0.6,0-5.9,0-6.4,0c-0.7,0-1.3,0.5-1.3,1.1
		c-0.1,0.8,0,1.6,0,2.4c8.6,0,17.3,0,25.9,0c0-0.6,0-1.2,0-1.7c0-1.3-0.5-1.8-1.8-1.8c-5.5,0-11,0-16.4,0c-0.4,0-0.8,0-0.9-0.5
		C8.1,0.5,8.3,0.2,8.7,0c6,0,11.9,0,17.9,0c1.8,0.6,2.3,1.8,2.3,3.6c-0.1,5.8,0,11.6,0,17.4c0,0.2,0,0.4,0,0.7
		c1.1-1.4,2.4-1.8,3.9-1.4c1-2,1.9-2.5,4.3-2.3c0.1-0.1,0.1-0.3,0.2-0.4c0.6-1.2,1.5-1.8,2.8-1.9c1.3-0.1,2.4,0.4,3,1.5
		c1.4,2.6,2.8,5.3,4,8c1.2,2.8,2,5.8,3,8.7C50,34.4,50,34.8,50,35.3z M25.1,28.9c-0.1-0.2-0.2-0.4-0.2-0.5c-1.7-3.3-3.4-6.5-5.1-9.8
		c-0.2-0.4-0.4-0.5-0.8-0.5c-4.6,0-9.2,0-13.8,0c-1.2,0-1.9-0.7-1.9-1.7c0-1.7,0-3.5,0-5.2c0-1,0.7-1.7,1.8-1.7c6.3,0,12.5,0,18.8,0
		c1.1,0,1.8,0.7,1.8,1.8c0,0.6,0.1,1.2,0,1.8c-0.2,1.8,0.2,3.4,1.2,4.9c0.2,0.3,0.3,0.6,0.5,0.9c0,0,0.1,0,0.1,0c0-4.1,0-8.2,0-12.3
		c-8.6,0-17.3,0-25.9,0c0,11.3,0,22.5,0,33.8c8.6,0,17.3,0,25.9,0c0-0.9,0-1.7,0-2.5c0-0.3-0.1-0.5-0.4-0.6
		c-1.2-0.5-2.4-1.1-3.5-1.7c-1.1-0.5-2.2-1.1-3.3-1.7c-0.1,0.1-0.2,0.2-0.4,0.3c-1.4,1.3-3.1,2-5,2.1c-5.1,0.2-8.9-4.1-8.2-9.1
		c0.6-4.3,4.9-7.4,9.2-6.6c3.5,0.7,5.9,3.2,6.5,6.8c0,0.1,0.1,0.3,0.2,0.3C23.3,28.1,24.2,28.5,25.1,28.9z M27.4,41.8
		c-8.7,0-17.3,0-25.9,0c0,1.7,0,3.3,0,5c0,1.2,0.5,1.7,1.7,1.7c4.1,0,8.3,0,12.4,0c3.4,0,6.8,0,10.2,0c0.9,0,1.5-0.5,1.6-1.3
		C27.4,45.4,27.4,43.6,27.4,41.8z M19.1,32.8c-1.1-2-0.3-4,1.4-4.8c0.4-0.2,0.4-0.4,0.3-0.7c-0.5-3.1-3.3-5.5-6.5-5.4
		c-2.8,0.1-5.3,2-6.1,4.7c-0.8,2.7,0.3,5.6,2.7,7.2C13.5,35.4,17.2,35,19.1,32.8z M18.8,16.7c-0.5-2.7,2.5-5.1,5.3-3.3
		c0-0.6,0-1.3,0-1.9c0-0.4-0.2-0.5-0.6-0.5c-6.1,0-12.2,0-18.3,0c-0.5,0-0.6,0.2-0.6,0.6c0,1.5,0,3,0,4.4c0,0.7,0,0.7,0.7,0.7
		c4.3,0,8.6,0,12.9,0C18.5,16.7,18.6,16.7,18.8,16.7z"/>
	<path class="st0" d="M14.4,47.1c-0.7,0-1.4,0-2.1,0c-1.2,0-1.9-0.8-1.9-1.9c0-1.2,0.8-2,2-2c1.4,0,2.8,0,4.2,0
		c1.9,0,2.3,2.1,1.6,3.1c-0.3,0.5-0.8,0.8-1.4,0.8C16,47.1,15.2,47.1,14.4,47.1C14.4,47.1,14.4,47.1,14.4,47.1z M14.4,44.7
		c-0.6,0-1.3,0-1.9,0c-0.3,0-0.6,0.1-0.6,0.5c0,0.4,0.3,0.5,0.6,0.5c1.3,0,2.7,0,4,0c0.3,0,0.6-0.1,0.6-0.5c0-0.4-0.3-0.5-0.6-0.5
		C15.8,44.7,15.1,44.7,14.4,44.7z"/>
	<path class="st0" d="M12.9,30c0.4-0.4,0.7-0.7,1-1c1.2-1.2,2.4-2.4,3.7-3.7c0.4-0.4,0.8-0.4,1.1-0.1c0.3,0.3,0.3,0.7-0.1,1.1
		c-1.7,1.7-3.4,3.4-5,5c-0.5,0.5-0.8,0.5-1.3,0c-0.6-0.6-1.3-1.3-1.9-1.9c-0.4-0.4-0.4-0.8-0.1-1.1c0.3-0.3,0.7-0.3,1.1,0.1
		C11.8,28.9,12.3,29.4,12.9,30z"/>
</g>
</svg>
