<svg width="74" height="74" viewBox="0 0 74 74" fill="none" xmlns="http://www.w3.org/2000/svg">
<path d="M37.0002 0C57.4347 0 74 16.5655 74 37.0001C74 57.4347 57.4347 74 37.0002 74C16.5655 74 0 57.4347 0 37.0001C0 16.5655 16.5655 0 37.0002 0ZM37.0002 5.54915C19.6302 5.54915 5.54914 19.6302 5.54914 37.0001C5.54914 54.3701 19.6302 68.4508 37.0002 68.4508C54.3697 68.4508 68.4509 54.3701 68.4509 37.0001C68.4509 19.6302 54.3697 5.54915 37.0002 5.54915ZM37.0002 42.54C43.0347 42.54 48.6915 44.9628 52.8374 49.182C53.9114 50.2751 53.8962 52.0316 52.803 53.1056C51.7098 54.1795 49.9533 54.1644 48.8794 53.0712C45.7663 49.903 41.5309 48.0892 37.0002 48.0892C32.4595 48.0892 28.2152 49.9111 25.1007 53.0915C24.0286 54.1866 22.272 54.2051 21.1771 53.133C20.0823 52.0609 20.0638 50.304 21.1359 49.2093C25.2838 44.9735 30.952 42.54 37.0002 42.54ZM25.9034 24.9793C28.4559 24.9793 30.5251 27.0485 30.5251 29.601C30.5251 32.1535 28.4559 34.2226 25.9034 34.2226C23.3509 34.2226 21.2817 32.1535 21.2817 29.601C21.2817 27.0485 23.3509 24.9793 25.9034 24.9793ZM48.0999 24.9793C50.6525 24.9793 52.7216 27.0485 52.7216 29.601C52.7216 32.1535 50.6525 34.2226 48.0999 34.2226C45.5473 34.2226 43.4782 32.1535 43.4782 29.601C43.4782 27.0485 45.5473 24.9793 48.0999 24.9793Z" fill="#E30613"/>
</svg>
