<svg width="49" height="53" viewBox="0 0 49 53" fill="none" xmlns="http://www.w3.org/2000/svg">
<path d="M30.0773 4.22765C30.3125 3.92892 30.7503 3.88919 31.0355 4.14073L33.4749 6.29304L25.7933 15.9H30.8811L36.4581 8.92512L40.8342 12.786C41.1033 13.0234 41.1346 13.4321 40.9044 13.7077L39.0737 15.9H44.2232C45.5316 13.9892 45.2331 11.3671 43.4619 9.80458L33.6633 1.15935C31.6675 -0.601417 28.603 -0.323411 26.9566 1.76779L15.8289 15.9H20.8867L30.0773 4.22765ZM35.0946 34.45C33.9975 34.45 33.1081 35.3399 33.1081 36.4375C33.1081 37.5351 33.9975 38.425 35.0946 38.425H40.3919C41.489 38.425 42.3784 37.5351 42.3784 36.4375C42.3784 35.3399 41.489 34.45 40.3919 34.45H35.0946ZM3.97297 16.5625C3.97297 15.4648 4.86236 14.575 5.95946 14.575H14.2456L17.4016 10.6H5.95946C2.66814 10.6 0 13.2695 0 16.5625V44.3875C0 49.144 3.85397 53 8.60811 53H40.3919C45.146 53 49 49.144 49 44.3875V27.1625C49 22.4059 45.146 18.55 40.3919 18.55H5.95946C4.86236 18.55 3.97297 17.6602 3.97297 16.5625ZM3.97297 44.3875V22.1857C4.59429 22.4054 5.26292 22.525 5.95946 22.525H40.3919C42.9518 22.525 45.027 24.6013 45.027 27.1625V44.3875C45.027 46.9487 42.9518 49.025 40.3919 49.025H8.60811C6.04819 49.025 3.97297 46.9487 3.97297 44.3875Z" fill="#FF8300"/>
</svg>
