<svg width="109" height="20" viewBox="0 0 109 20" fill="none" xmlns="http://www.w3.org/2000/svg">
<path d="M0.00181852 15.7278V3.94542C-0.0133142 3.48403 0.0661302 3.02443 0.235171 2.59502C0.404211 2.1656 0.659265 1.77548 0.984634 1.44877C1.31 1.12206 1.69874 0.86569 2.12684 0.6955C2.55494 0.52531 3.0133 0.444913 3.47363 0.459277H7.61805C13.0712 0.459277 17.4821 4.10333 17.4821 9.83662C17.4821 15.5699 13.0954 19.214 7.61805 19.214H3.47363C3.0133 19.2283 2.55494 19.1479 2.12684 18.9778C1.69874 18.8076 1.31 18.5512 0.984634 18.2245C0.659265 17.8978 0.404211 17.5077 0.235171 17.0782C0.0661302 16.6488 -0.0133142 16.1892 0.00181852 15.7278ZM7.79977 13.2074C9.81137 13.2074 11.2776 11.9259 11.2776 9.83662C11.2776 7.74737 9.81137 6.45981 7.79977 6.45981H6.20018V13.2074H7.79977Z" fill="#EC6508"/>
<path d="M19.0818 11.5493V3.24697C19.0633 2.82746 19.1297 2.40853 19.2771 2.01546C19.4245 1.62239 19.6498 1.26332 19.9394 0.959897C20.229 0.656477 20.5769 0.414997 20.9622 0.250022C21.3474 0.0850474 21.762 0 22.1809 0C22.5999 0 23.0145 0.0850474 23.3997 0.250022C23.7849 0.414997 24.1329 0.656477 24.4225 0.959897C24.7121 1.26332 24.9374 1.62239 25.0848 2.01546C25.2322 2.40853 25.2986 2.82746 25.2801 3.24697V11.3368C25.2652 11.6064 25.3054 11.8762 25.3981 12.1298C25.4908 12.3834 25.6341 12.6153 25.8192 12.8115C26.0044 13.0077 26.2275 13.1639 26.475 13.2707C26.7224 13.3775 26.989 13.4325 27.2584 13.4325C27.5278 13.4325 27.7944 13.3775 28.0419 13.2707C28.2893 13.1639 28.5125 13.0077 28.6976 12.8115C28.8828 12.6153 29.0261 12.3834 29.1188 12.1298C29.2115 11.8762 29.2516 11.6064 29.2367 11.3368V3.24697C29.2182 2.82746 29.2846 2.40853 29.432 2.01546C29.5794 1.62239 29.8047 1.26332 30.0943 0.959897C30.384 0.656477 30.7319 0.414997 31.1171 0.250022C31.5023 0.0850474 31.9169 0 32.3359 0C32.7548 0 33.1694 0.0850474 33.5546 0.250022C33.9399 0.414997 34.2878 0.656477 34.5774 0.959897C34.867 1.26332 35.0923 1.62239 35.2397 2.01546C35.3871 2.40853 35.4535 2.82746 35.435 3.24697V11.5493C35.435 16.1833 32.1813 19.5905 27.2614 19.5905C22.3415 19.5905 19.0818 16.1833 19.0818 11.5493Z" fill="#EC6508"/>
<path d="M37.5738 16.0801V3.00409C37.5677 2.61203 37.6416 2.22286 37.7908 1.86043C37.9401 1.498 38.1617 1.16996 38.4419 0.896419C38.7222 0.622883 39.0553 0.409622 39.4207 0.26971C39.7861 0.129797 40.1762 0.0661865 40.567 0.082779C41.1398 0.0758216 41.7049 0.214846 42.2094 0.486805C42.7139 0.758764 43.1411 1.15474 43.4511 1.63757L47.032 6.45986C47.729 7.36884 48.3724 8.31791 48.9588 9.30221V3.56891C48.9588 1.52824 50.0252 0.082779 52.061 0.082779C54.0969 0.082779 55.1572 1.52824 55.1572 3.56891V16.6693C55.164 17.0594 55.0915 17.4469 54.944 17.808C54.7966 18.1692 54.5772 18.4964 54.2994 18.7698C54.0216 19.0431 53.6911 19.2569 53.3281 19.398C52.9651 19.5392 52.5773 19.6047 52.1883 19.5906C51.6123 19.5966 51.0441 19.4573 50.5359 19.1856C50.0277 18.9139 49.5958 18.5185 49.2799 18.0358L45.487 13.1771C44.876 12.3764 44.3057 11.5453 43.7783 10.6869V16.0498C43.7783 18.1087 42.7058 19.5602 40.6761 19.5602C38.6463 19.5602 37.5738 18.139 37.5738 16.0801Z" fill="#EC6508"/>
<path d="M67.2874 18.1937L64.8335 15.1935C64.2276 14.4707 64.0034 14.1731 63.4945 13.4808V16.4264C63.4945 17.2495 63.1682 18.0389 62.5876 18.6209C62.007 19.2029 61.2195 19.5299 60.3983 19.5299C59.5771 19.5299 58.7896 19.2029 58.2089 18.6209C57.6283 18.0389 57.3021 17.2495 57.3021 16.4264V3.24707C57.3021 2.42397 57.6283 1.63458 58.2089 1.05256C58.7896 0.470534 59.5771 0.143555 60.3983 0.143555C61.2195 0.143555 62.007 0.470534 62.5876 1.05256C63.1682 1.63458 63.4945 2.42397 63.4945 3.24707V6.08943C63.9792 5.39099 64.2458 5.03873 64.8335 4.26741L66.9724 1.53437C69.8019 -2.10968 74.8491 2.14171 71.7832 5.71287L68.3659 9.73348L72.0499 13.912C74.9582 17.2281 70.2564 21.8378 67.2874 18.1937Z" fill="#EC6508"/>
<path d="M74.9036 16.4262V3.24691C74.9036 2.4222 75.2304 1.63127 75.8122 1.04811C76.394 0.464948 77.183 0.137329 78.0058 0.137329C78.8286 0.137329 79.6176 0.464948 80.1994 1.04811C80.7812 1.63127 81.108 2.4222 81.108 3.24691V16.4262C81.108 17.2509 80.7812 18.0419 80.1994 18.625C79.6176 19.2082 78.8286 19.5358 78.0058 19.5358C77.183 19.5358 76.394 19.2082 75.8122 18.625C75.2304 18.0419 74.9036 17.2509 74.9036 16.4262V16.4262Z" fill="#EC6508"/>
<path d="M83.2469 16.0801V3.00409C83.2408 2.61203 83.3147 2.22286 83.4639 1.86043C83.6132 1.498 83.8348 1.16996 84.115 0.896419C84.3953 0.622883 84.7284 0.409622 85.0938 0.26971C85.4592 0.129797 85.8492 0.0661865 86.2401 0.082779C86.8128 0.0758216 87.378 0.214846 87.8825 0.486805C88.387 0.758764 88.8142 1.15474 89.1242 1.63757L92.7051 6.45986C93.4021 7.36884 94.0455 8.31791 94.6319 9.30221V3.56891C94.6319 1.52824 95.6983 0.082779 97.728 0.082779C99.7578 0.082779 100.83 1.52824 100.83 3.56891V16.6693C100.837 17.0594 100.764 17.4469 100.617 17.808C100.47 18.1692 100.25 18.4964 99.9724 18.7698C99.6946 19.0431 99.3641 19.2569 99.0011 19.398C98.6382 19.5392 98.2504 19.6047 97.8613 19.5906C97.2851 19.5982 96.7163 19.4597 96.2078 19.1879C95.6993 18.9161 95.2676 18.5197 94.9529 18.0358L91.1601 13.1771C90.5491 12.3764 89.9788 11.5453 89.4514 10.6869V16.0498C89.4514 18.1087 88.3729 19.5602 86.3492 19.5602C84.3254 19.5602 83.2469 18.139 83.2469 16.0801Z" fill="#EC6508"/>
<path d="M106.017 0.137365C106.606 0.200768 107.16 0.452126 107.596 0.854459C108.032 1.25679 108.328 1.78885 108.44 2.37238C108.515 3.33973 108.387 4.31207 108.065 5.22689C107.744 6.3444 107.422 7.3708 106.707 7.99636C106.461 8.21163 106.171 8.37085 105.857 8.46311C105.543 8.55537 105.213 8.57847 104.89 8.53083V8.53083C104.569 8.49088 104.26 8.38171 103.985 8.21083C103.71 8.03994 103.475 7.81138 103.296 7.54086C102.769 6.75131 102.727 5.67025 102.69 4.50415C102.616 3.53681 102.744 2.56459 103.066 1.64965C103.326 1.11506 103.752 0.678737 104.279 0.405273C104.806 0.13181 105.407 0.0357456 105.993 0.131295" fill="#E60381"/>
<path d="M104.302 18.224C104.309 18.4657 104.244 18.704 104.116 18.9085C103.987 19.113 103.8 19.2743 103.58 19.3719C103.359 19.4694 103.114 19.4987 102.877 19.4561C102.64 19.4134 102.42 19.3007 102.247 19.1323C102.074 18.964 101.955 18.7477 101.905 18.5112C101.855 18.2746 101.877 18.0285 101.968 17.8044C102.058 17.5803 102.213 17.3884 102.413 17.2533C102.613 17.1181 102.849 17.0459 103.09 17.0458C103.405 17.0456 103.708 17.1686 103.935 17.3886C104.161 17.6085 104.293 17.9082 104.302 18.224ZM103.945 18.224C103.945 17.9985 103.855 17.7822 103.696 17.6228C103.537 17.4633 103.321 17.3737 103.096 17.3737C102.871 17.3737 102.656 17.4633 102.497 17.6228C102.337 17.7822 102.248 17.9985 102.248 18.224C102.248 18.4495 102.337 18.6658 102.497 18.8253C102.656 18.9847 102.871 19.0743 103.096 19.0743C103.321 19.0743 103.537 18.9847 103.696 18.8253C103.855 18.6658 103.945 18.4495 103.945 18.224V18.224ZM103.533 18.5155C103.564 18.551 103.583 18.5958 103.587 18.6431C103.588 18.6659 103.584 18.6887 103.576 18.71C103.568 18.7314 103.555 18.7508 103.54 18.7673C103.524 18.7837 103.505 18.7968 103.484 18.8057C103.463 18.8146 103.44 18.8192 103.418 18.8192C103.389 18.8188 103.362 18.812 103.337 18.7994C103.311 18.7867 103.289 18.7686 103.272 18.7463L103.036 18.4305H102.993V18.637C102.998 18.6624 102.997 18.6886 102.991 18.7137C102.984 18.7388 102.972 18.7621 102.956 18.782C102.939 18.8019 102.919 18.818 102.895 18.829C102.872 18.84 102.847 18.8457 102.821 18.8457C102.795 18.8457 102.769 18.84 102.746 18.829C102.723 18.818 102.702 18.8019 102.685 18.782C102.669 18.7621 102.657 18.7388 102.651 18.7137C102.644 18.6886 102.643 18.6624 102.648 18.637V17.805C102.647 17.7811 102.651 17.7572 102.66 17.735C102.669 17.7128 102.682 17.6928 102.7 17.6762C102.717 17.6596 102.737 17.6467 102.76 17.6386C102.782 17.6304 102.806 17.6271 102.83 17.6288H103.169C103.252 17.6304 103.333 17.6575 103.4 17.7066C103.468 17.7556 103.518 17.8243 103.545 17.9031C103.572 17.982 103.575 18.0673 103.552 18.1475C103.529 18.2277 103.482 18.299 103.418 18.3516L103.533 18.5155ZM102.993 18.1451H103.096C103.127 18.1451 103.156 18.1329 103.178 18.1113C103.199 18.0896 103.211 18.0603 103.211 18.0297C103.211 17.9991 103.199 17.9697 103.178 17.9481C103.156 17.9264 103.127 17.9143 103.096 17.9143H102.993V18.1451Z" fill="#EC6508"/>
</svg>
