<svg width="84" height="55" viewBox="0 0 84 55" fill="none" xmlns="http://www.w3.org/2000/svg">
<path d="M21.7855 48.3213C19.3632 48.3213 17.8607 46.4948 17.8607 43.6093C17.8607 40.7238 19.3938 38.8973 21.7855 38.8973C24.1771 38.8973 25.7103 40.7391 25.7103 43.6093C25.7103 46.4795 24.2691 48.3213 21.7855 48.3213ZM57.4456 33.6635H52.2024V53.6165H58.3348V45.1902L63.6394 53.5705H68.5453V33.6174H62.4742V42.3814L57.4456 33.6635ZM50.1174 33.6635H43.709V40.601H39.5849V33.6635H33.1765V53.6165H39.5849V46.4027H43.709V53.6165H50.1174V33.6635ZM4.00142 46.6944C4.00142 47.999 3.08155 48.4594 2.03904 48.4594C1.34179 48.442 0.652467 48.3071 0 48.0604V53.5705C1.03594 53.9256 2.12459 54.1021 3.21953 54.0923C6.86833 54.0923 10.4098 52.5575 10.4098 45.973V33.6942H4.00142V46.6944ZM21.7855 33.1416C20.4063 33.0981 19.033 33.34 17.7515 33.8523C16.47 34.3645 15.3079 35.1361 14.3379 36.1187C13.368 37.1013 12.6111 38.2737 12.1145 39.5626C11.618 40.8515 11.3926 42.2292 11.4523 43.6093C11.3927 44.9901 11.6181 46.3685 12.1145 47.6582C12.6108 48.9479 13.3675 50.1212 14.3372 51.105C15.3069 52.0888 16.4688 52.8618 17.7504 53.3758C19.0319 53.8898 20.4056 54.1337 21.7855 54.0923C23.166 54.136 24.5407 53.8937 25.8233 53.3805C27.1059 52.8673 28.2687 52.0943 29.2389 51.1101C30.2091 50.1258 30.9657 48.9515 31.4612 47.6608C31.9568 46.37 32.1806 44.9907 32.1187 43.6093C32.1807 42.2286 31.9569 40.8499 31.4612 39.56C30.9655 38.27 30.2086 37.0966 29.2382 36.1136C28.2678 35.1305 27.1048 34.359 25.8222 33.8476C24.5396 33.3361 23.1653 33.0958 21.7855 33.1416V33.1416ZM76.2722 39.281C76.2722 38.7131 76.7322 38.3601 77.6214 38.3601C79.4807 38.4702 81.2761 39.08 82.8186 40.1252V34.6458C81.0778 33.6325 79.0984 33.1026 77.0848 33.1109C73.344 33.1109 70.0018 35.0602 70.0018 39.588C70.0018 46.1111 77.5907 45.8195 77.5907 47.8148C77.5907 48.4287 77.1308 48.8278 76.0576 48.8278C73.907 48.6773 71.8412 47.9277 70.0938 46.6637V52.358C72.0492 53.4188 74.2482 53.948 76.4715 53.8928C80.9175 53.8928 83.8918 51.6673 83.8918 47.4618C83.8611 40.8466 76.2722 41.3224 76.2722 39.2964V39.281ZM71.5656 14.9844L73.0067 21.1238H69.6032L71.5656 14.9844ZM30.9535 12.1756L32.6246 20.034H29.0984L30.9535 12.1756ZM14.2273 13.8793C14.2273 15.9053 13.3074 17.2252 10.3638 18.4071V12.4365C10.9861 12.0331 11.7077 11.81 12.4489 11.7919C13.8133 11.7919 14.2273 12.897 14.2273 13.8793ZM55.6212 11.7151C55.6563 12.2599 55.5762 12.8059 55.3863 13.3176C55.1963 13.8292 54.9007 14.2951 54.5188 14.6847C54.1369 15.0743 53.6772 15.3789 53.1698 15.5786C52.6623 15.7783 52.1185 15.8687 51.5738 15.8439V15.8439V8.04683C54.2414 8.24636 55.6212 9.3668 55.6212 11.7151V11.7151ZM21.6782 12.9584C21.6782 7.60173 18.474 5.2841 14.0893 5.2841C10.1655 5.45016 6.36054 6.681 3.08155 8.84495V29.857H10.4098V25.0069C16.4963 23.5795 21.7242 19.3894 21.7242 12.9584H21.6782ZM67.6715 26.9715H74.5398L75.2604 29.857H82.9259L75.751 7.3101C73.5971 6.07094 71.2871 5.12628 68.8826 4.50133L59.1474 29.857H66.6596L67.6715 26.9715ZM27.1054 26.2655H34.1577L35.2769 29.857H43.2644L34.4796 0.786991C32.0183 1.04406 29.5858 1.52701 27.2127 2.22975L18.3207 29.857H26.2315L27.1054 26.2655ZM51.6351 22.9809C59.0247 22.9809 63.5474 18.7294 63.5474 11.7151C63.5474 3.33484 56.3418 -0.563678 44.0463 0.0656108V29.857H51.7118L51.6351 22.9809Z" fill="#C23122"/>
</svg>
