<svg width="74" height="74" viewBox="0 0 74 74" fill="none" xmlns="http://www.w3.org/2000/svg">
<path d="M37 0C57.4344 0 74 16.5655 74 37C74 57.4344 57.4344 74 37 74C16.5655 74 0 57.4344 0 37C0 16.5655 16.5655 0 37 0ZM37 5.55C19.6306 5.55 5.55 19.6306 5.55 37C5.55 54.3693 19.6306 68.45 37 68.45C54.3693 68.45 68.45 54.3693 68.45 37C68.45 19.6306 54.3693 5.55 37 5.55ZM32.375 42.3254L48.9129 25.7878C49.9966 24.7041 51.7534 24.7041 52.8371 25.7878C53.8224 26.773 53.912 28.3146 53.1057 29.401L52.8371 29.7121L34.3371 48.2121C33.3522 49.1974 31.8104 49.287 30.7241 48.4807L30.4129 48.2121L21.1628 38.9621C20.0791 37.8784 20.0791 36.1216 21.1628 35.0379C22.148 34.0526 23.6896 33.963 24.776 34.7693L25.0872 35.0379L32.375 42.3254L48.9129 25.7878L32.375 42.3254Z" fill="#16AC96"/>
</svg>
